<?xml version="1.0" encoding="UTF-8"?>
<svg version="1.1" xmlns="http://www.w3.org/2000/svg" width="253" height="241">
<path d="M0 0 C7.45227212 -0.10220736 14.90436059 -0.17180156 22.35717773 -0.21972656 C24.88751988 -0.23972544 27.41781651 -0.26693353 29.94799805 -0.30175781 C33.60476989 -0.3507936 37.26092577 -0.3730871 40.91796875 -0.390625 C42.03205612 -0.41127014 43.14614349 -0.43191528 44.29399109 -0.45318604 C56.53937523 -0.45661117 66.95117593 3.06020437 77 10 C78.12728516 10.77150391 78.12728516 10.77150391 79.27734375 11.55859375 C79.84582031 12.03425781 80.41429688 12.50992188 81 13 C81 13.66 81 14.32 81 15 C81.66 15 82.32 15 83 15 C93.62146251 27.72016113 95.37884698 40.02528549 95 56 C95.77085937 55.4225 96.54171875 54.845 97.3359375 54.25 C98.33882813 53.5075 99.34171875 52.765 100.375 52 C101.37273437 51.2575 102.37046875 50.515 103.3984375 49.75 C106 48 106 48 108 48 C108 47.34 108 46.68 108 46 C113.41176471 42 113.41176471 42 116 42 C116 41.34 116 40.68 116 40 C118.1171875 38.2734375 118.1171875 38.2734375 120.875 36.375 C121.77992188 35.74335937 122.68484375 35.11171875 123.6171875 34.4609375 C126 33 126 33 128 33 C128 32.34 128 31.68 128 31 C131.46153846 28 131.46153846 28 134 28 C134 27.34 134 26.68 134 26 C135.98 25.505 135.98 25.505 138 25 C138 24.34 138 23.68 138 23 C143.41176471 19 143.41176471 19 146 19 C146 18.34 146 17.68 146 17 C148.30078125 15.0546875 148.30078125 15.0546875 151.3125 12.875 C152.29863281 12.15054688 153.28476563 11.42609375 154.30078125 10.6796875 C157 9 157 9 160 9 C160 9.66 160 10.32 160 11 C159.34 11 158.68 11 158 11 C158 11.66 158 12.32 158 13 C156.42578125 14.5859375 156.42578125 14.5859375 154.3125 16.375 C153.58417969 16.99246094 152.85585937 17.60992187 152.10546875 18.24609375 C151.41066406 18.82488281 150.71585938 19.40367188 150 20 C149.05125 20.804375 148.1025 21.60875 147.125 22.4375 C145 24 145 24 143 24 C142.77054688 24.57621094 142.54109375 25.15242188 142.3046875 25.74609375 C140.65752903 28.59163398 138.72224303 30.04869562 136.125 32.0625 C131.87210178 35.44586726 127.79606867 38.92910176 123.8125 42.625 C119.86219417 46.2846289 115.89087291 49.90812342 111.81640625 53.4296875 C110.54470132 54.52909692 109.28240526 55.63944086 108.02734375 56.7578125 C107.39957031 57.31210938 106.77179688 57.86640625 106.125 58.4375 C105.57070312 58.93121094 105.01640625 59.42492187 104.4453125 59.93359375 C103 61 103 61 101 61 C101 61.66 101 62.32 101 63 C100.34 63 99.68 63 99 63 C98.67 63.99 98.34 64.98 98 66 C96.5390625 67.47265625 96.5390625 67.47265625 94.625 69.0625 C91.23998442 71.92860054 87.94771206 74.86737252 84.6875 77.875 C69.65389346 91.55328834 58.02876749 99.61371274 37.109375 99.29296875 C36.03874817 99.28872391 34.96812134 99.28447906 33.86505127 99.28010559 C30.49309602 99.26350325 27.12177023 99.2258869 23.75 99.1875 C21.44401913 99.17242929 19.13802877 99.1587451 16.83203125 99.14648438 C11.22114456 99.11366058 5.61061727 99.06364986 0 99 C-0.7435514 81.93186753 -1.10872154 64.89674207 -1.125 47.8125 C-1.12749756 46.92252319 -1.12999512 46.03254639 -1.13256836 45.11560059 C-1.16722515 30.05860935 -0.66202979 15.04143832 0 0 Z M29 25 C28.97473055 31.6752034 28.95716732 38.35039457 28.94506836 45.02563477 C28.94002675 47.29842591 28.93319363 49.5712138 28.92456055 51.84399414 C28.91248739 55.10303551 28.90677013 58.36203417 28.90234375 61.62109375 C28.89718246 62.64400009 28.89202118 63.66690643 28.88670349 64.72080994 C28.88662796 65.66170975 28.88655243 66.60260956 28.88647461 67.57202148 C28.884254 68.40475082 28.88203339 69.23748016 28.87974548 70.09544373 C28.78995168 72.01033274 28.78995168 72.01033274 30 73 C38.89747638 73.64612626 47.27343899 74.0519822 55 69 C55.58265625 68.62617187 56.1653125 68.25234375 56.765625 67.8671875 C60.8003835 64.90967035 62.39522296 61.64540722 64 57 C64.226875 56.360625 64.45375 55.72125 64.6875 55.0625 C65.85600798 47.35034732 64.61713918 40.92756188 61 34 C56.09195837 28.14989351 50.41801536 26.03344252 43 25 C40.54245859 24.93421998 38.08331222 24.91430838 35.625 24.9375 C34.37976563 24.94652344 33.13453125 24.95554687 31.8515625 24.96484375 C30.91054687 24.97644531 29.96953125 24.98804687 29 25 Z " fill="#FDFCFC" transform="translate(34,27)"/>
<path d="M0 0 C1.19173828 0.00837891 2.38347656 0.01675781 3.61132812 0.02539062 C4.85205078 0.05439453 6.09277344 0.08339844 7.37109375 0.11328125 C9.23797852 0.1277832 9.23797852 0.1277832 11.14257812 0.14257812 C20.30112837 0.25662612 20.30112837 0.25662612 23.80859375 1.42578125 C22.40886186 6.33989373 20.18780471 10.35721241 17.43359375 14.61328125 C16.78136841 15.63953613 16.78136841 15.63953613 16.1159668 16.68652344 C15.17841761 18.16102207 14.23813808 19.63378749 13.29541016 21.10498047 C10.7233642 25.11973726 8.17135946 29.14716466 5.62109375 33.17578125 C5.1120752 33.97943115 4.60305664 34.78308105 4.07861328 35.61108398 C0.17157976 41.80092866 -3.57569075 48.06051051 -7.19140625 54.42578125 C-7.62324219 55.17859375 -8.05507812 55.93140625 -8.5 56.70703125 C-9.40074629 58.27788291 -10.29686463 59.851388 -11.19140625 61.42578125 C-11.85140625 61.42578125 -12.51140625 61.42578125 -13.19140625 61.42578125 C-13.19140625 74.29578125 -13.19140625 87.16578125 -13.19140625 100.42578125 C-22.76140625 100.42578125 -32.33140625 100.42578125 -42.19140625 100.42578125 C-42.17078125 97.90566406 -42.15015625 95.38554687 -42.12890625 92.7890625 C-42.13615764 90.30312156 -42.15705673 87.81763502 -42.17919922 85.33178711 C-42.18722765 83.62606562 -42.18143464 81.92021329 -42.16064453 80.21459961 C-42.02197901 67.78943896 -43.67566536 60.43276287 -51.19140625 50.42578125 C-52.07500058 48.90079014 -52.93657233 47.3622876 -53.75390625 45.80078125 C-56.63161634 40.50855413 -59.91492136 35.47742222 -63.19140625 30.42578125 C-67.84168615 32.51950917 -71.67794069 35.69311685 -75.73046875 38.74609375 C-78.19140625 40.42578125 -78.19140625 40.42578125 -80.19140625 40.42578125 C-80.19140625 41.08578125 -80.19140625 41.74578125 -80.19140625 42.42578125 C-85.60317096 46.42578125 -85.60317096 46.42578125 -88.19140625 46.42578125 C-88.19140625 47.08578125 -88.19140625 47.74578125 -88.19140625 48.42578125 C-90.30859375 50.15234375 -90.30859375 50.15234375 -93.06640625 52.05078125 C-93.97132812 52.68242187 -94.87625 53.3140625 -95.80859375 53.96484375 C-98.19140625 55.42578125 -98.19140625 55.42578125 -100.19140625 55.42578125 C-100.19140625 56.08578125 -100.19140625 56.74578125 -100.19140625 57.42578125 C-105.60317096 61.42578125 -105.60317096 61.42578125 -108.19140625 61.42578125 C-108.19140625 62.08578125 -108.19140625 62.74578125 -108.19140625 63.42578125 C-110.66640625 64.41578125 -110.66640625 64.41578125 -113.19140625 65.42578125 C-113.19140625 66.08578125 -113.19140625 66.74578125 -113.19140625 67.42578125 C-115.28590305 69.06007876 -117.36922716 70.56745359 -119.56640625 72.05078125 C-120.1696875 72.47101563 -120.77296875 72.89125 -121.39453125 73.32421875 C-125.9260349 76.42578125 -125.9260349 76.42578125 -128.19140625 76.42578125 C-128.19140625 77.08578125 -128.19140625 77.74578125 -128.19140625 78.42578125 C-130.40833416 80.18035521 -132.62310364 81.81584888 -134.94140625 83.42578125 C-135.89273438 84.10253906 -135.89273438 84.10253906 -136.86328125 84.79296875 C-139.87740687 86.91541554 -142.8086381 88.92232874 -146.19140625 90.42578125 C-145.37890625 88.48828125 -145.37890625 88.48828125 -144.19140625 86.42578125 C-142.70640625 85.93078125 -142.70640625 85.93078125 -141.19140625 85.42578125 C-141.19140625 84.76578125 -141.19140625 84.10578125 -141.19140625 83.42578125 C-140.53140625 83.42578125 -139.87140625 83.42578125 -139.19140625 83.42578125 C-138.95679688 82.85472656 -138.7221875 82.28367187 -138.48046875 81.6953125 C-136.89068566 78.89633075 -134.99156885 77.22685175 -132.56640625 75.11328125 C-131.66792969 74.324375 -130.76945312 73.53546875 -129.84375 72.72265625 C-128.96847656 71.9646875 -128.09320313 71.20671875 -127.19140625 70.42578125 C-125.83703036 69.23851988 -124.48284435 68.05104184 -123.12890625 66.86328125 C-122.49597656 66.31414062 -121.86304687 65.765 -121.2109375 65.19921875 C-119.7157432 63.88622415 -118.23628974 62.55525638 -116.765625 61.21484375 C-115.95738281 60.48007813 -115.14914063 59.7453125 -114.31640625 58.98828125 C-113.57648438 58.30894531 -112.8365625 57.62960938 -112.07421875 56.9296875 C-110.19140625 55.42578125 -110.19140625 55.42578125 -108.19140625 55.42578125 C-107.86140625 54.43578125 -107.53140625 53.44578125 -107.19140625 52.42578125 C-102.73426339 48.42578125 -102.73426339 48.42578125 -100.19140625 48.42578125 C-99.86140625 47.43578125 -99.53140625 46.44578125 -99.19140625 45.42578125 C-93.72628997 40.42578125 -93.72628997 40.42578125 -91.19140625 40.42578125 C-91.19140625 39.76578125 -91.19140625 39.10578125 -91.19140625 38.42578125 C-85.71521577 33.42578125 -85.71521577 33.42578125 -83.19140625 33.42578125 C-82.86140625 32.43578125 -82.53140625 31.44578125 -82.19140625 30.42578125 C-81.53140625 30.42578125 -80.87140625 30.42578125 -80.19140625 30.42578125 C-80.19140625 29.76578125 -80.19140625 29.10578125 -80.19140625 28.42578125 C-79.57265625 28.34328125 -78.95390625 28.26078125 -78.31640625 28.17578125 C-76.05186717 27.65317826 -76.05186717 27.65317826 -75.31640625 25.67578125 C-73.62628302 22.29553479 -71.20821968 20.68839133 -68.19140625 18.42578125 C-67.53140625 18.42578125 -66.87140625 18.42578125 -66.19140625 18.42578125 C-65.69640625 16.94078125 -65.69640625 16.94078125 -65.19140625 15.42578125 C-63.66015625 13.84765625 -63.66015625 13.84765625 -61.69140625 12.17578125 C-60.97984375 11.57121094 -60.26828125 10.96664062 -59.53515625 10.34375 C-55.81108776 7.29622062 -52.01952219 4.3411751 -48.19140625 1.42578125 C-43.80785239 5.34709744 -41.36451181 9.37934394 -38.75390625 14.61328125 C-37.97461576 16.12861349 -37.19336857 17.64294107 -36.41015625 19.15625 C-35.84554687 20.25138916 -35.84554687 20.25138916 -35.26953125 21.36865234 C-31.85255041 28.92343358 -31.85255041 28.92343358 -26.19140625 34.42578125 C-25.92569824 33.55324707 -25.65999023 32.68071289 -25.38623047 31.78173828 C-23.41146209 26.23511669 -20.29240001 21.36178897 -17.31640625 16.30078125 C-16.69121094 15.21667969 -16.06601563 14.13257812 -15.421875 13.015625 C-14.81214844 11.97277344 -14.20242187 10.92992188 -13.57421875 9.85546875 C-13.02137207 8.90913574 -12.46852539 7.96280273 -11.89892578 6.98779297 C-8.39965238 1.73738189 -6.45996526 -0.08633639 0 0 Z " fill="#FDFCFC" transform="translate(190.19140625,89.57421875)"/>
<path d="M0 0 C0 0.66 0 1.32 0 2 C-0.66 2 -1.32 2 -2 2 C-2 2.66 -2 3.32 -2 4 C-3.57421875 5.5859375 -3.57421875 5.5859375 -5.6875 7.375 C-6.41582031 7.99246094 -7.14414063 8.60992187 -7.89453125 9.24609375 C-8.58933594 9.82488281 -9.28414062 10.40367188 -10 11 C-10.94875 11.804375 -11.8975 12.60875 -12.875 13.4375 C-15 15 -15 15 -17 15 C-17.22945312 15.57621094 -17.45890625 16.15242188 -17.6953125 16.74609375 C-19.34247097 19.59163398 -21.27775697 21.04869562 -23.875 23.0625 C-28.12789822 26.44586726 -32.20393133 29.92910176 -36.1875 33.625 C-42.98316153 39.92061365 -49.95684922 45.98397538 -57 52 C-57.66 51.67 -58.32 51.34 -59 51 C-57.37660195 49.29115995 -55.70680947 47.62553283 -54 46 C-53.34 46 -52.68 46 -52 46 C-51.67 45.01 -51.34 44.02 -51 43 C-50.67 42.01 -50.34 41.02 -50 40 C-54.644455 42.64683995 -58.59187211 45.85283005 -62.6953125 49.2578125 C-65 51 -65 51 -68 52 C-68 44.74 -68 37.48 -68 30 C-67.34 30 -66.68 30 -66 30 C-64.46733418 33.06533164 -64.89723529 36.26754272 -64.9375 39.625 C-64.94201172 40.33140625 -64.94652344 41.0378125 -64.95117188 41.765625 C-64.96296125 43.51045275 -64.98089676 45.255237 -65 47 C-64.22914063 46.4225 -63.45828125 45.845 -62.6640625 45.25 C-61.15972656 44.13625 -61.15972656 44.13625 -59.625 43 C-58.62726563 42.2575 -57.62953125 41.515 -56.6015625 40.75 C-54 39 -54 39 -52 39 C-52 38.34 -52 37.68 -52 37 C-46.58823529 33 -46.58823529 33 -44 33 C-44 32.34 -44 31.68 -44 31 C-41.8828125 29.2734375 -41.8828125 29.2734375 -39.125 27.375 C-37.76761719 26.42753906 -37.76761719 26.42753906 -36.3828125 25.4609375 C-34 24 -34 24 -32 24 C-32 23.34 -32 22.68 -32 22 C-28.53846154 19 -28.53846154 19 -26 19 C-26 18.34 -26 17.68 -26 17 C-24.68 16.67 -23.36 16.34 -22 16 C-22 15.34 -22 14.68 -22 14 C-16.58823529 10 -16.58823529 10 -14 10 C-14 9.34 -14 8.68 -14 8 C-11.69921875 6.0546875 -11.69921875 6.0546875 -8.6875 3.875 C-7.70136719 3.15054688 -6.71523437 2.42609375 -5.69921875 1.6796875 C-3 0 -3 0 0 0 Z " fill="#F6F4F4" transform="translate(194,36)"/>
<path d="M0 0 C0.99 0.495 0.99 0.495 2 1 C-7 10 -7 10 -9 11 C-9.33 11.66 -9.66 12.32 -10 13 C-11.64363134 13.72159424 -13.31050386 14.39351421 -15 15 C-15 15.66 -15 16.32 -15 17 C-16.63604196 18.37073786 -18.30678061 19.70055256 -20 21 C-20.556875 21.556875 -21.11375 22.11375 -21.6875 22.6875 C-23 24 -23 24 -25 25 C-24.01 25.66 -23.02 26.32 -22 27 C-21.67 26.34 -21.34 25.68 -21 25 C-20.01979625 23.9805881 -19.02196992 22.97753644 -18 22 C-17.34 22.33 -16.68 22.66 -16 23 C-16.495 24.485 -16.495 24.485 -17 26 C-19.5625 27.1875 -19.5625 27.1875 -22 28 C-22 28.66 -22 29.32 -22 30 C-27.41176471 34 -27.41176471 34 -30 34 C-30 34.66 -30 35.32 -30 36 C-31.65 36.66 -33.3 37.32 -35 38 C-35 38.66 -35 39.32 -35 40 C-37.0944968 41.63429751 -39.17782091 43.14167234 -41.375 44.625 C-41.97828125 45.04523438 -42.5815625 45.46546875 -43.203125 45.8984375 C-47.73462865 49 -47.73462865 49 -50 49 C-50 49.66 -50 50.32 -50 51 C-52.21692791 52.75457396 -54.43169739 54.39006763 -56.75 56 C-57.70132813 56.67675781 -57.70132813 56.67675781 -58.671875 57.3671875 C-61.68600062 59.48963429 -64.61723185 61.49654749 -68 63 C-67.1875 61.0625 -67.1875 61.0625 -66 59 C-64.515 58.505 -64.515 58.505 -63 58 C-63 57.34 -63 56.68 -63 56 C-62.34 56 -61.68 56 -61 56 C-60.76539063 55.42894531 -60.53078125 54.85789063 -60.2890625 54.26953125 C-58.69927941 51.4705495 -56.8001626 49.8010705 -54.375 47.6875 C-53.47652344 46.89859375 -52.57804687 46.1096875 -51.65234375 45.296875 C-50.77707031 44.53890625 -49.90179688 43.7809375 -49 43 C-47.64562411 41.81273863 -46.2914381 40.62526059 -44.9375 39.4375 C-44.30457031 38.88835937 -43.67164062 38.33921875 -43.01953125 37.7734375 C-41.52433695 36.4604429 -40.04488349 35.12947513 -38.57421875 33.7890625 C-37.76597656 33.05429688 -36.95773438 32.31953125 -36.125 31.5625 C-35.38507813 30.88316406 -34.64515625 30.20382813 -33.8828125 29.50390625 C-32 28 -32 28 -30 28 C-29.505 26.515 -29.505 26.515 -29 25 C-24.54285714 21 -24.54285714 21 -22 21 C-21.505 19.515 -21.505 19.515 -21 18 C-15.53488372 13 -15.53488372 13 -13 13 C-13 12.34 -13 11.68 -13 11 C-7.52380952 6 -7.52380952 6 -5 6 C-4.67 5.01 -4.34 4.02 -4 3 C-3.34 3 -2.68 3 -2 3 C-2 2.34 -2 1.68 -2 1 C-1.34 0.67 -0.68 0.34 0 0 Z " fill="#F7F5F4" transform="translate(112,117)"/>
<path d="M0 0 C0.99 0.33 1.98 0.66 3 1 C2.0022242 3.99332739 1.2477975 4.94766315 -1 7 C-0.67 7.66 -0.34 8.32 0 9 C-1.32 10.32 -2.64 11.64 -4 13 C-3.67 13.99 -3.34 14.98 -3 16 C-4.37263317 18.74526635 -6.40592747 19.44355648 -9 21 C-9.33 21.66 -9.66 22.32 -10 23 C-11.32 23 -12.64 23 -14 23 C-14 21.68 -14 20.36 -14 19 C-12.68 19.33 -11.36 19.66 -10 20 C-9.75507813 19.16210938 -9.51015625 18.32421875 -9.2578125 17.4609375 C-7.838539 13.55573153 -5.98142234 10.19028729 -3.875 6.625 C-3.50246094 5.98433594 -3.12992188 5.34367187 -2.74609375 4.68359375 C-1.83565998 3.11951523 -0.91851809 1.55934466 0 0 Z " fill="#F6F5F5" transform="translate(174,104)"/>
<path d="M0 0 C1.21171875 0.00322266 2.4234375 0.00644531 3.671875 0.00976562 C4.94289062 0.01814453 6.21390625 0.02652344 7.5234375 0.03515625 C8.8021875 0.03966797 10.0809375 0.04417969 11.3984375 0.04882812 C14.56515042 0.06064422 17.73177106 0.0771181 20.8984375 0.09765625 C21.3934375 1.08765625 21.3934375 1.08765625 21.8984375 2.09765625 C12.3284375 2.42765625 2.7584375 2.75765625 -7.1015625 3.09765625 C-7.7615625 4.74765625 -8.4215625 6.39765625 -9.1015625 8.09765625 C-11.7265625 10.91015625 -11.7265625 10.91015625 -14.1015625 13.09765625 C-12.78360046 8.48478912 -10.96768036 4.94900213 -8.1015625 1.09765625 C-5.33538687 -0.28543156 -3.0913825 -0.01444571 0 0 Z " fill="#F5F4F4" transform="translate(190.1015625,89.90234375)"/>
<path d="M0 0 C0.99 0.33 1.98 0.66 3 1 C-0.19036201 8.34317959 -3.87483857 12.16337461 -11 16 C-13.93875502 16.89098905 -16.7038872 17.17902058 -19.765625 17.31640625 C-20.65507813 17.35830078 -21.54453125 17.40019531 -22.4609375 17.44335938 C-23.38132812 17.48267578 -24.30171875 17.52199219 -25.25 17.5625 C-26.18585938 17.60568359 -27.12171875 17.64886719 -28.0859375 17.69335938 C-30.39048641 17.7991805 -32.69513839 17.90126557 -35 18 C-35.33 17.34 -35.66 16.68 -36 16 C-34.09927734 15.96132812 -34.09927734 15.96132812 -32.16015625 15.921875 C-19.49215986 15.77760578 -19.49215986 15.77760578 -8 11 C-6.576875 10.1028125 -6.576875 10.1028125 -5.125 9.1875 C-2.35114828 6.33206441 -1.36171808 3.72680737 0 0 Z " fill="#F3F2F2" transform="translate(97,84)"/>
<path d="M0 0 C3.53586014 3.17320782 5.58578031 5.16743695 6 10 C3.65941363 7.87219421 2.29299694 5.88437779 1 3 C-3.65923713 4.55307904 -6.26358711 8.20970324 -9.5625 11.75 C-11.98327329 13.98455996 -12.93703671 14.34365072 -16 15 C-16.33 15.99 -16.66 16.98 -17 18 C-17.66 17.67 -18.32 17.34 -19 17 C-17.85156176 15.85156176 -16.70245907 14.70378324 -15.55078125 13.55859375 C-14.47529007 12.47768448 -13.41087417 11.3856859 -12.35546875 10.28515625 C-8.50700701 6.31507269 -4.5877782 3.08972817 0 0 Z " fill="#F6F5F4" transform="translate(142,91)"/>
<path d="M0 0 C7.20878233 0.6865507 11.52978813 4.59344044 17 9 C17.66 9.33 18.32 9.66 19 10 C18.67 10.99 18.34 11.98 18 13 C18.33 13.99 18.66 14.98 19 16 C19.07029121 18.57265818 19.09370832 21.11641431 19.0625 23.6875 C19.05798828 24.38939453 19.05347656 25.09128906 19.04882812 25.81445312 C19.03706927 27.54300538 19.01913454 29.27151365 19 31 C18.67 31 18.34 31 18 31 C17.90203125 30.01 17.8040625 29.02 17.703125 28 C16.40388494 15.76155271 16.40388494 15.76155271 9.6875 5.6875 C6.5412494 3.7119473 3.45718372 2.35575832 0 1 C0 0.67 0 0.34 0 0 Z " fill="#F2F1F0" transform="translate(81,52)"/>
<path d="M0 0 C0.66 0 1.32 0 2 0 C2 0.99 2 1.98 2 3 C-0.1171875 4.82421875 -0.1171875 4.82421875 -2.875 6.6875 C-3.77992187 7.31011719 -4.68484375 7.93273437 -5.6171875 8.57421875 C-8 10 -8 10 -10 10 C-10 10.66 -10 11.32 -10 12 C-11.96147874 13.38938077 -13.96166576 14.7260411 -16 16 C-16.66 15.67 -17.32 15.34 -18 15 C-16.58510266 13.72719706 -15.16800334 12.4568417 -13.75 11.1875 C-12.96109375 10.47980469 -12.1721875 9.77210938 -11.359375 9.04296875 C-8.3668192 6.45173252 -5.29276214 4.19517476 -2 2 C-1.34 1.34 -0.68 0.68 0 0 Z " fill="#F7F5F5" transform="translate(120,120)"/>
<path d="M0 0 C0.66 0 1.32 0 2 0 C0.69919346 4.4188202 -1.02425692 7.91349062 -3.5625 11.75 C-5.92724298 15.29116869 -5.92724298 15.29116869 -8 19 C-8.66 19 -9.32 19 -10 19 C-9.43697042 15.05879291 -8.3208055 12.2491277 -6 9 C-5.34 9 -4.68 9 -4 9 C-3.71125 8.2575 -3.4225 7.515 -3.125 6.75 C-2.17697356 4.43260203 -1.15154089 2.22082885 0 0 Z " fill="#F6F5F5" transform="translate(187,132)"/>
<path d="M0 0 C1.32 0 2.64 0 4 0 C2.62712658 3.69876091 0.93644547 6.9514476 -1.125 10.3125 C-1.66382813 11.19550781 -2.20265625 12.07851562 -2.7578125 12.98828125 C-3.16773438 13.65214844 -3.57765625 14.31601563 -4 15 C-4.66 14.01 -5.32 13.02 -6 12 C-5.01 11.67 -4.02 11.34 -3 11 C-1.96961044 8.43957934 -1.96961044 8.43957934 -1.3125 5.4375 C-1.06113281 4.42558594 -0.80976563 3.41367188 -0.55078125 2.37109375 C-0.36902344 1.58863281 -0.18726563 0.80617188 0 0 Z " fill="#F5F4F3" transform="translate(194,117)"/>
<path d="M0 0 C0.66 0 1.32 0 2 0 C2.33 5.94 2.66 11.88 3 18 C3.66 18.33 4.32 18.66 5 19 C3.625 20.5 3.625 20.5 2 22 C1.34 22 0.68 22 0 22 C0 14.74 0 7.48 0 0 Z " fill="#EFEDEC" transform="translate(126,66)"/>
<path d="M0 0 C0 0.66 0 1.32 0 2 C-0.66 2 -1.32 2 -2 2 C-2 2.66 -2 3.32 -2 4 C-6.47058824 8 -6.47058824 8 -9 8 C-8.66410006 4.86493389 -7.97334828 3.974751 -5.625 1.75 C-3 0 -3 0 0 0 Z " fill="#EEEDED" transform="translate(194,36)"/>
<path d="M0 0 C0 3 0 3 -1.42578125 4.640625 C-2.04839844 5.17171875 -2.67101562 5.7028125 -3.3125 6.25 C-4.23482422 7.06210938 -4.23482422 7.06210938 -5.17578125 7.890625 C-5.77777344 8.25671875 -6.37976563 8.6228125 -7 9 C-7.99 8.67 -8.98 8.34 -10 8 C-9.34 7.34 -8.68 6.68 -8 6 C-7.195625 5.154375 -6.39125 4.30875 -5.5625 3.4375 C-3 1 -3 1 0 0 Z " fill="#F5F4F4" transform="translate(123,98)"/>
<path d="M0 0 C0.66 0 1.32 0 2 0 C2.86646667 1.43011973 3.71781829 2.86940619 4.5625 4.3125 C5.03816406 5.11300781 5.51382813 5.91351563 6.00390625 6.73828125 C7 9 7 9 6 12 C3.71540242 9.71540242 3.02870252 7.87462656 1.875 4.875 C1.52179688 3.96492188 1.16859375 3.05484375 0.8046875 2.1171875 C0.53914062 1.41851562 0.27359375 0.71984375 0 0 Z " fill="#F6F5F4" transform="translate(148,102)"/>
<path d="M0 0 C0.66 0 1.32 0 2 0 C2 0.99 2 1.98 2 3 C-0.31 4.32 -2.62 5.64 -5 7 C-4.1875 5.0625 -4.1875 5.0625 -3 3 C-2.01 2.67 -1.02 2.34 0 2 C0 1.34 0 0.68 0 0 Z " fill="#EDECEC" transform="translate(49,173)"/>
<path d="M0 0 C0.66 0.33 1.32 0.66 2 1 C1.34 2.32 0.68 3.64 0 5 C-1.32 5 -2.64 5 -4 5 C-4 3.68 -4 2.36 -4 1 C-2.68 1.33 -1.36 1.66 0 2 C0 1.34 0 0.68 0 0 Z " fill="#F4F2F2" transform="translate(164,122)"/>
<path d="M0 0 C0.99 0.33 1.98 0.66 3 1 C1.68 2.32 0.36 3.64 -1 5 C-2.32 4.34 -3.64 3.68 -5 3 C-4.01 2.34 -3.02 1.68 -2 1 C-1.67 1.33 -1.34 1.66 -1 2 C-0.67 1.34 -0.34 0.68 0 0 Z " fill="#F6F5F3" transform="translate(128,92)"/>
</svg>
